<?xml version="1.0" encoding="utf-8"?>
<!-- Generator: Adobe Illustrator 22.0.1, SVG Export Plug-In . SVG Version: 6.00 Build 0)  -->
<svg version="1.1" id="Layer_1" xmlns="http://www.w3.org/2000/svg" xmlns:xlink="http://www.w3.org/1999/xlink" x="0px" y="0px"
	 viewBox="0 0 431 389" style="enable-background:new 0 0 431 389;" xml:space="preserve">
<style type="text/css">
	.st0{fill:#F9D87D;}
	.st1{fill:#EBEFF2;}
</style>
<g transform="matrix( 0.999755859375, 0, 0, 0.999969482421875, 2,1.95) ">
	<g transform="matrix( 1, 0, 0, 1, 0,0.15) ">
		<g>
			<g id="Symbol_29_0_Layer1_0_MEMBER_0_MEMBER_0_FILL">
				<path class="st0" d="M68,145.8c1.1-2,1.3-4.2,0.6-6.4c-0.6-2.2-2-3.9-4-5c-2-1.1-4.2-1.4-6.4-0.7c-2.2,0.7-3.9,2-5,4.1
					c-4.9,8.9-8.9,18.4-12,28.5c-3.1,10.1-5.2,20.5-6.2,31.2c-1,10.6-1,21.2,0.1,31.8c1.1,10.3,3.1,20.4,6.2,30.2
					c0.4,1.4,1.1,2.6,2.1,3.6c1,1,2.2,1.6,3.5,2c1.6,0.5,3.2,0.5,4.9,0c2.2-0.7,3.9-2.1,4.9-4.2c1.1-2,1.3-4.2,0.6-6.4
					c-2.7-8.6-4.6-17.6-5.6-27c-1-9.6-1-19.1,0-28.4c0.9-9.3,2.8-18.6,5.5-27.9C60.2,162.1,63.7,153.6,68,145.8z"/>
			</g>
		</g>
	</g>
	<g transform="matrix( 1, 0, 0, 1, 0,0.15) ">
		<g>
			<g id="Symbol_29_0_Layer1_0_MEMBER_0_MEMBER_1_FILL">
				<path class="st1" d="M64.7,134.4c-1.3-0.7-2.6-1-4-1c-1.5,0-3,0.4-4.2,1.1c-1.4,0.8-2.4,1.9-3.2,3.2c-4.9,8.9-8.9,18.4-12,28.5
					c-3.1,10.1-5.2,20.5-6.2,31.2c-1,10.6-1,21.2,0.1,31.8c1.1,10.3,3.1,20.4,6.2,30.2c0.4,1.4,1.1,2.6,2.1,3.6c1,1,2.2,1.6,3.5,2
					c0.9,0.2,1.7,0.4,2.4,0.4c0.8,0,1.6-0.1,2.5-0.4c2.2-0.7,3.9-2.1,4.9-4.2c1.1-2,1.3-4.2,0.6-6.4c-2.8-8.9-4.6-17.9-5.6-27
					c-1-9.6-1-19.1,0-28.4c0.9-9.3,2.8-18.6,5.5-27.9c2.8-9.1,6.4-17.5,10.7-25.3c1.1-2,1.3-4.2,0.6-6.4
					C68.1,137.2,66.7,135.5,64.7,134.4z"/>
			</g>
		</g>
	</g>
	<g transform="matrix( 1, 0, 0, 1, 0,0.15) ">
		<g>
			<g id="Symbol_29_0_Layer1_1_MEMBER_0_MEMBER_0_FILL">
				<path class="st0" d="M371.9,229c-1.8,1.5-2.7,3.4-2.9,5.8c-0.7,9.1-2.3,18.2-4.9,27.1c-2.5,9-6,17.8-10.4,26.5
					c-4.3,8.3-9.5,16.3-15.5,23.8c-5.9,7.2-12.3,13.7-19.3,19.6c-1.8,1.5-2.8,3.4-3,5.7c-0.2,2.3,0.4,4.4,1.9,6.1
					c1.1,1.3,2.4,2.2,4,2.7c1.3,0.4,2.7,0.5,4,0.2c1.4-0.3,2.6-0.9,3.8-1.8c7.9-6.6,15.1-13.9,21.6-22c6.7-8.3,12.5-17.2,17.4-26.6
					c4.8-9.3,8.7-19.2,11.7-29.6c2.8-9.9,4.6-20,5.4-30.4c0.2-2.3-0.5-4.4-2-6.1c-1.5-1.8-3.4-2.8-5.8-2.9
					C375.7,226.8,373.7,227.5,371.9,229z"/>
			</g>
		</g>
	</g>
	<g transform="matrix( 1, 0, 0, 1, 0,0.15) ">
		<g>
			<g id="Symbol_29_0_Layer1_1_MEMBER_0_MEMBER_1_FILL">
				<path class="st1" d="M378,227h-0.6c-2.2,0-4,0.8-5.6,2.2c-1.6,1.5-2.5,3.3-2.7,5.5c-0.7,9.1-2.3,18.2-4.9,27.1
					c-2.5,9-6,17.8-10.4,26.5c-4.3,8.3-9.5,16.3-15.5,23.8c-5.9,7.2-12.3,13.7-19.3,19.6c-1.8,1.5-2.8,3.4-3,5.7
					c-0.2,2.3,0.4,4.4,1.9,6.1c1.1,1.3,2.4,2.2,4,2.7c0.7,0.2,1.5,0.3,2.4,0.3c2.1,0,3.9-0.6,5.4-1.9c7.9-6.6,15.1-13.9,21.6-22
					c6.7-8.3,12.5-17.2,17.4-26.6c4.8-9.3,8.7-19.2,11.7-29.6c2.8-9.9,4.6-20,5.4-30.4c0.2-2.3-0.5-4.4-2-6.1
					C382.2,228.2,380.3,227.2,378,227z"/>
			</g>
		</g>
	</g>
</g>
</svg>
