
<svg xmlns="http://www.w3.org/2000/svg" version="1.1" xmlns:xlink="http://www.w3.org/1999/xlink" preserveAspectRatio="none" x="0px" y="0px" width="319px" height="372px" viewBox="0 0 319 372">
<defs>
<g id="Layer2_0_FILL">
<path fill="#FFFFFF" stroke="none" d="
M 229.05 35.35
Q 206.6 21.65 180.8 17.5 154.05 13.15 127.5 19.6 100.95 26.05 79.2 42.2 58.25 57.8 44.6 80.25 30.95 102.7 26.75 128.55 22.4 155.25 28.85 181.8 35.3 208.35 51.45 230.1 67.1 251.1 89.55 264.75 112 278.4 137.8 282.6 164.55 286.95 191.1 280.5 217.65 274.05 239.4 257.9 260.35 242.25 274.05 219.8 287.7 197.35 291.85 171.55 296.2 144.8 289.75 118.25 283.3 91.7 267.15 69.95 251.5 49 229.05 35.35 Z"/>
</g>

<path id="Layer2_0_1_STROKES" stroke="#77C7FA" stroke-width="8" stroke-linejoin="miter" stroke-linecap="butt" stroke-miterlimit="10" fill="none" d="
M 289.75 118.25
Q 296.2 144.8 291.85 171.55 287.7 197.35 274.05 219.8 260.35 242.25 239.4 257.9 217.65 274.05 191.1 280.5 164.55 286.95 137.8 282.6 112 278.4 89.55 264.75 67.1 251.1 51.45 230.1 35.3 208.35 28.85 181.8 22.4 155.25 26.75 128.55 30.95 102.7 44.6 80.25 58.25 57.8 79.2 42.2 100.95 26.05 127.5 19.6 154.05 13.15 180.8 17.5 206.6 21.65 229.05 35.35 251.5 49 267.15 69.95 283.3 91.7 289.75 118.25 Z"/>
</defs>

<g transform="matrix( 1, 0, 0, 1, 0,35.55) ">
<use xlink:href="#Layer2_0_FILL"/>

<use xlink:href="#Layer2_0_1_STROKES"/>
</g>
</svg>
