<?xml version="1.0" encoding="utf-8"?>
<!-- Generator: Adobe Illustrator 22.0.1, SVG Export Plug-In . SVG Version: 6.00 Build 0)  -->
<svg version="1.1" id="Layer_1" xmlns="http://www.w3.org/2000/svg" xmlns:xlink="http://www.w3.org/1999/xlink" x="0px" y="0px"
	 viewBox="0 0 678 396" style="enable-background:new 0 0 678 396;" xml:space="preserve">
<style type="text/css">
	.st0{fill:#FFFFFF;}
	.st1{fill:#D53A31;}
</style>
<g transform="matrix( 1, 0, 0, 1, 0,0) ">
	<g transform="matrix( 1, 0, 0, 1, 0,0) ">
		<g>
			<g id="Symbol_32_0_Layer0_0_FILL">
				<path class="st0" d="M374.9,115.9L353.5,0L0,126.9l37.8,46l-17.6,70.2L374.9,115.9z"/>
			</g>
		</g>
	</g>
	<g transform="matrix( 1, 0, 0, 1, 0,0) ">
		<g>
			<g id="Symbol_32_0_Layer0_1_MEMBER_0_MEMBER_0_FILL">
				<path class="st1" d="M75.1,118.8l-19.6,7l11.9,81.8l21-7.4c4.3-1.6,7.5-3.1,9.5-4.5c2.2-1.5,3.9-3.4,5.2-5.9
					c2.5-4.5,3-11.4,1.6-20.7c-0.5-3.2-1.1-6-2-8.4c-1-2.7-2.4-4.8-4.3-6.1c-1.3-1-2.6-1.5-4-1.6c1.2-1.1,2.3-2.4,3.2-4
					c1.8-3.2,2.2-7.9,1.3-14c-0.4-3-0.9-5.4-1.7-7.4c-1.3-3.8-3.4-6.7-6.3-8.6C87.2,116.5,81.9,116.5,75.1,118.8 M71.8,134.5
					l4.5-1.6c2.1-0.7,3.7-0.8,4.8-0.3c1.1,0.5,1.9,1.6,2.6,3.2c0.4,1,0.7,2.4,0.9,4.2c0.4,3.3,0.2,5.8-0.7,7.5
					c-0.8,1.8-2.6,3.1-5.3,4.1l-4.1,1.4L71.8,134.5 M79.7,188.6l-3.2-22.3l4.7-1.7c2-0.7,3.7-0.8,5-0.2c1.2,0.5,2.2,1.8,2.9,3.8
					c0.5,1.5,0.9,3.3,1.2,5.4c0.6,4.1,0.5,7.1-0.2,9c-0.8,1.9-2.6,3.4-5.6,4.4L79.7,188.6z"/>
			</g>
		</g>
	</g>
	<g transform="matrix( 1, 0, 0, 1, 0,0) ">
		<g>
			<g id="Symbol_32_0_Layer0_1_MEMBER_0_MEMBER_1_FILL">
				<path class="st0" d="M73.4,114.2L50,122.4l13.2,91.9l26.8-9.5c4.5-1.6,8-3.3,10.7-5.1c2.8-1.9,5.1-4.4,6.8-7.6
					c3-5.5,3.7-13.5,2.2-23.9c-0.5-3.3-1.2-6.4-2.2-9.2c-1.2-3.3-3-5.9-5.3-7.9c2.2-4.2,2.8-9.8,1.8-16.9c-0.5-3.4-1.1-6.2-1.9-8.5
					c-1.7-4.8-4.4-8.5-8.2-11c-2.7-1.8-6-2.8-9.8-2.8C80.7,112.1,77.2,112.8,73.4,114.2 M55.5,125.8l19.6-7c3.2-1.2,6.2-1.8,8.8-1.8
					c2.7,0,5,0.6,7,1.9c2.9,1.9,5,4.8,6.3,8.6c0.7,2,1.2,4.5,1.7,7.4c0.9,6.1,0.5,10.8-1.3,14c-0.9,1.6-1.9,2.9-3.2,4
					c1.4,0.1,2.7,0.7,4,1.6c1.9,1.3,3.3,3.3,4.3,6.1c0.9,2.4,1.5,5.2,2,8.4c1.4,9.3,0.9,16.2-1.6,20.7c-1.3,2.4-3.1,4.4-5.2,5.9
					c-2,1.4-5.2,2.9-9.5,4.5l-21,7.4L55.5,125.8 M76.4,166.3l3.2,22.3l4.7-1.6c3-1,4.8-2.5,5.6-4.4c0.7-1.9,0.8-4.9,0.2-9
					c-0.2-2-0.6-3.8-1.2-5.4c-0.8-2-1.8-3.3-2.9-3.8c-0.5-0.2-1.1-0.4-1.8-0.4c-0.9,0-2,0.2-3.2,0.6L76.4,166.3 M84,169l0.3,0.9
					c0.4,1,0.7,2.5,1,4.3c0.4,3.3,0.4,5.5,0,6.6c-0.2,0.4-0.8,0.7-1.6,1.1L82,169.6L84,169 M79.4,132.2c-0.9,0-1.9,0.2-3.1,0.6
					l-4.5,1.6l2.7,18.7l4.1-1.4c2.7-1,4.5-2.3,5.3-4.1c0.8-1.8,1.1-4.3,0.7-7.5c-0.2-1.8-0.5-3.2-0.9-4.2c-0.6-1.7-1.4-2.8-2.6-3.2
					C80.7,132.4,80.1,132.2,79.4,132.2 M77.3,137.9l1.5-0.5l0.1,0.1c0.2,0.8,0.5,1.9,0.7,3.2c0.3,2.3,0.2,3.9-0.2,4.8
					c-0.1,0.2-0.4,0.5-0.8,0.8L77.3,137.9z"/>
			</g>
		</g>
	</g>
	<g transform="matrix( 1, 0, 0, 1, 0,0) ">
		<g>
			<g id="Symbol_32_0_Layer0_1_MEMBER_1_MEMBER_0_FILL">
				<path class="st1" d="M122.9,116.3l12.2-4.3l9.9,67.9l14.3-5.1l-11.8-81.7l-41,14.5l11.8,81.7l14.4-5.1L122.9,116.3z"/>
			</g>
		</g>
	</g>
	<g transform="matrix( 1, 0, 0, 1, 0,0) ">
		<g>
			<g id="Symbol_32_0_Layer0_1_MEMBER_1_MEMBER_1_FILL">
				<path class="st0" d="M128.5,119.7l2.6-0.9l9.8,67.9l24-8.5l-13.3-91.8l-50.6,17.9l13.3,91.8l24-8.5L128.5,119.7 M135.2,112.1
					l-12.2,4.3l9.9,68l-14.4,5.1l-11.8-81.7l41-14.5l11.8,81.7l-14.3,5.1L135.2,112.1z"/>
			</g>
		</g>
	</g>
	<g transform="matrix( 1, 0, 0, 1, 0,0) ">
		<g>
			<g id="Symbol_32_0_Layer0_1_MEMBER_2_MEMBER_0_FILL">
				<path class="st1" d="M175.1,97.9l19.1-6.8l-2-13.8l-33.4,11.8l11.9,81.8l33.4-11.8l-2-13.8l-19.1,6.8l-3-20.5l16.4-5.8
					l-1.9-13.8l-16.4,5.8L175.1,97.9z"/>
			</g>
		</g>
	</g>
	<g transform="matrix( 1, 0, 0, 1, 0,0) ">
		<g>
			<g id="Symbol_32_0_Layer0_1_MEMBER_2_MEMBER_1_FILL">
				<path class="st0" d="M199.7,94.4l-3.4-23.8l-43.1,15.2l13.3,91.8l43.1-15.2l-3.4-23.9l-19.2,6.8l-1.6-10.5l16.4-5.8l-3.4-23.9
					L182,111l-1.4-9.8L199.7,94.4 M194.1,91.2l-19.1,6.8l2.8,19.8l16.4-5.8l1.9,13.8l-16.4,5.8l3,20.5l19.1-6.8l2,13.8l-33.4,11.8
					l-11.9-81.8l33.4-11.8L194.1,91.2z"/>
			</g>
		</g>
	</g>
	<g transform="matrix( 1, 0, 0, 1, 0,0) ">
		<g>
			<g id="Symbol_32_0_Layer0_1_MEMBER_3_MEMBER_0_FILL">
				<path class="st1" d="M245.6,85.8c-0.4-3-1.2-6.1-2.4-9.4c-1.6-4.6-4.2-7.8-7.7-9.5c-4-1.9-9-1.8-15.2,0.4l-19.4,6.9l11.9,81.7
					l14.3-5.1l-4.3-29.6l7.1-2.6c6.8-2.4,11.4-6,14-10.8C246.5,103.1,247,95.7,245.6,85.8 M217.3,82.9l4.9-1.8
					c2.1-0.7,3.7-0.8,4.9-0.2c1.2,0.6,2.1,1.8,2.8,3.7c0.5,1.4,1,3.5,1.4,6.2c0.6,4.5,0.6,7.8-0.1,9.9c-0.6,2.2-2.3,3.8-5.1,4.8
					l-5.2,1.8L217.3,82.9z"/>
			</g>
		</g>
	</g>
	<g transform="matrix( 1, 0, 0, 1, 0,0) ">
		<g>
			<g id="Symbol_32_0_Layer0_1_MEMBER_3_MEMBER_1_FILL">
				<path class="st0" d="M250.6,85.1c-0.5-3.5-1.4-6.9-2.6-10.4c-2.1-5.9-5.5-10-10.2-12.3c-2.5-1.2-5.3-1.8-8.4-1.8
					c-3.2,0-6.8,0.7-10.6,2.1l-23.3,8.2l13.3,91.8l24-8.5l-4.3-29.6l3.2-1.1c8-2.8,13.6-7.2,16.8-13.2
					C251.4,104.5,252.2,96.1,250.6,85.1 M243.2,76.4c1.1,3.3,1.9,6.4,2.4,9.4c1.4,9.9,0.9,17.3-1.7,22.1c-2.6,4.8-7.2,8.4-14,10.8
					l-7.1,2.6l4.3,29.6l-14.3,5.1l-11.9-81.7l19.4-6.9c3.3-1.2,6.3-1.8,8.9-1.8c2.3,0,4.4,0.4,6.2,1.3
					C239.1,68.6,241.6,71.8,243.2,76.4 M222.2,81.2l-4.9,1.8l3.6,24.6l5.2-1.8c2.8-1,4.5-2.6,5.1-4.8c0.6-2.2,0.6-5.5,0.1-9.9
					c-0.4-2.7-0.9-4.8-1.4-6.2c-0.6-1.9-1.6-3.1-2.8-3.7c-0.5-0.3-1.2-0.4-1.9-0.4C224.4,80.6,223.4,80.8,222.2,81.2 M225.1,86.3
					c0.4,1,0.8,2.8,1.2,5.3c0.5,3.8,0.5,6.4,0.1,7.9c-0.1,0.4-0.6,0.8-1.5,1.2l-2-14.5l2-0.7L225.1,86.3z"/>
			</g>
		</g>
	</g>
	<g transform="matrix( 1, 0, 0, 1, 0,0) ">
		<g>
			<g id="Symbol_32_0_Layer0_1_MEMBER_4_MEMBER_0_FILL">
				<path class="st1" d="M269.6,85.2l-2.8-19.9l19-6.8L284,44.8l-33.5,11.9l11.8,81.7l33.5-11.8l-2-13.8l-19.1,6.8L271.6,99
					l16.4-5.8l-2-13.8L269.6,85.2 M270.1,44l12.3-4.4l-2-13.8l-12.4,4.4L270.1,44 M262.4,46.8L260.5,33l-12.4,4.3l2,13.8L262.4,46.8
					z"/>
			</g>
		</g>
	</g>
	<g transform="matrix( 1, 0, 0, 1, 0,0) ">
		<g>
			<g id="Symbol_32_0_Layer0_1_MEMBER_4_MEMBER_1_FILL">
				<path class="st0" d="M287.3,38.3l-2.8-19.1l-42,14.9l2.8,19.2l-0.4,0.1l13.3,91.8l43-15.2l-3.4-23.8l-19.1,6.8l-1.5-10.5
					l16.4-5.8l-3.5-23.9l-16.4,5.8l-1.4-9.8l19.1-6.7L288,38.1L287.3,38.3 M248.1,37.3l12.4-4.3l1.9,13.8l-12.3,4.4L248.1,37.3
					 M268.1,30.2l12.4-4.4l2,13.8L270.1,44L268.1,30.2 M266.9,65.3l2.8,19.9l16.4-5.8l2,13.8L271.6,99l3.1,20.6l19.1-6.8l2,13.8
					l-33.5,11.8l-11.8-81.7L284,44.8l1.9,13.8L266.9,65.3z"/>
			</g>
		</g>
	</g>
	<g transform="matrix( 1, 0, 0, 1, 0,0) ">
		<g>
			<g id="Symbol_32_0_Layer0_1_MEMBER_5_MEMBER_0_FILL">
				<path class="st1" d="M356.9,90.4l-6.4,2.3l-9.9-67.9L302,38.4l3.8,26c2.3,15.7,2.4,30.4,0.1,44.1l-5.1,1.8l3.8,24.8l13.5-4.8
					l-1.7-11.1l28.9-10.2l1.7,11.2l13.6-4.8L356.9,90.4 M328.2,43.6l7.9,54.2l-15.6,5.5c1.9-12.5,1.9-25.1,0.1-37.6L318,47.2
					L328.2,43.6z"/>
			</g>
		</g>
	</g>
	<g transform="matrix( 1, 0, 0, 1, 0,0) ">
		<g>
			<g id="Symbol_32_0_Layer0_1_MEMBER_5_MEMBER_1_FILL">
				<path class="st0" d="M361,83.7l-6.5,2.3L344.6,18l-48.2,17.1l4.4,30.1c2.1,14.1,2.2,27.3,0.5,39.6l-6.1,2.1l5.3,34.9l23.1-8.2
					l-1.7-11.1l19.2-6.8l1.7,11.1l23.2-8.2L361,83.7 M350.5,92.7l6.4-2.3l3.6,24.9l-13.6,4.8l-1.7-11.2l-28.9,10.2l1.7,11.1
					l-13.5,4.8l-3.8-24.8l5.1-1.8c2.3-13.7,2.3-28.3-0.1-44.1l-3.8-26l38.6-13.7L350.5,92.7 M336.1,97.8l-7.9-54.2L318,47.2
					l2.6,18.5c1.8,12.5,1.8,25-0.1,37.6L336.1,97.8 M326.5,95.9c0.9-10.2,0.6-20.5-0.9-30.9l-2.1-14.4l0.7-0.2l6.4,44.1L326.5,95.9z
					"/>
			</g>
		</g>
	</g>
</g>
</svg>
