<?xml version="1.0" encoding="utf-8"?>
<!-- Generator: Adobe Illustrator 22.0.1, SVG Export Plug-In . SVG Version: 6.00 Build 0)  -->
<svg version="1.1" id="Layer_1" xmlns="http://www.w3.org/2000/svg" xmlns:xlink="http://www.w3.org/1999/xlink" x="0px" y="0px"
	 viewBox="0 0 678 396" style="enable-background:new 0 0 678 396;" xml:space="preserve">
<style type="text/css">
	.st0{fill:#FFFFFF;}
	.st1{fill:#F6C049;}
</style>
<g transform="matrix( 1, 0, 0, 1, 0,0) ">
	<g transform="matrix( 1, 0, 0, 1, 0,0) ">
		<g>
			<g id="Symbol_32_0_Layer1_0_FILL">
				<path class="st0" d="M502,191.6L487,86.2L157.5,202.9l14.9,105.4L502,191.6z"/>
			</g>
		</g>
	</g>
	<g transform="matrix( 1, 0, 0, 1, 0,0) ">
		<g>
			<g id="Symbol_32_0_Layer1_1_MEMBER_0_MEMBER_0_FILL">
				<path class="st1" d="M225.2,220.2c-0.4-3-0.9-5.4-1.6-7.4c-1.3-3.8-3.4-6.6-6.3-8.6c-3.8-2.5-9.1-2.6-15.9-0.1l-19.6,6.9
					l11.9,81.7l21-7.4c4.3-1.6,7.5-3.1,9.5-4.5c2.2-1.5,3.9-3.5,5.2-5.9c2.5-4.5,3-11.4,1.6-20.7c-0.5-3.2-1.1-6-2-8.4
					c-1-2.7-2.4-4.8-4.3-6.1c-1.2-0.9-2.5-1.5-3.9-1.6c1.1-1,2.2-2.4,3.1-4C225.7,231,226.1,226.3,225.2,220.2 M202.6,218.1
					c2.1-0.8,3.7-0.9,4.8-0.3c1.1,0.5,1.9,1.6,2.6,3.2c0.4,1,0.7,2.4,0.9,4.2c0.4,3.2,0.2,5.7-0.7,7.5c-0.8,1.8-2.6,3.1-5.3,4.1
					l-4.1,1.4l-2.7-18.7L202.6,218.1 M202.8,251.5l4.7-1.6c2-0.7,3.7-0.8,5-0.2c1.2,0.5,2.2,1.8,2.9,3.8c0.5,1.5,0.9,3.2,1.2,5.3
					c0.6,4.1,0.5,7.1-0.2,9c-0.7,1.9-2.6,3.4-5.6,4.5l-4.7,1.6L202.8,251.5z"/>
			</g>
		</g>
	</g>
	<g transform="matrix( 1, 0, 0, 1, 0,0) ">
		<g>
			<g id="Symbol_32_0_Layer1_1_MEMBER_1_MEMBER_0_FILL">
				<path class="st1" d="M267,196.6c0.9-1.9,2.2-3.1,4-3.8c3.1-1.1,5.2,0.2,6.5,3.8c0.6,1.6,1,2.9,1.2,4.1l14.4-5.1
					c-0.3-1.3-0.8-2.9-1.5-4.9c-1.7-4.8-4.3-8.3-7.8-10.5c-4.4-2.7-9.7-2.9-16.1-0.6c-6.6,2.3-11.1,6.2-13.7,11.6
					c-1.6,3.4-2.4,7.5-2.4,12.4c0,5,0.8,13.3,2.4,24.8c1.4,10,2.8,17.2,4.4,21.6c1.5,4.4,3.6,7.8,6.4,10.2c4.5,3.9,10.5,4.6,17.8,2
					c6.4-2.2,10.9-5.7,13.5-10.3c2.9-5.3,3.8-12.1,2.7-20.5l-14.6,5.2c0.3,3,0.2,5.5-0.4,7.5c-0.7,2.5-2.2,4.1-4.5,4.8
					c-3.1,1.1-5.3-0.3-6.6-4.1c-1.4-3.9-2.9-11.1-4.4-21.4c-1.2-8.6-1.9-14.8-2.1-18.7C265.9,200.9,266.2,198.3,267,196.6z"/>
			</g>
		</g>
	</g>
	<g transform="matrix( 1, 0, 0, 1, 0,0) ">
		<g>
			<g id="Symbol_32_0_Layer1_1_MEMBER_1_MEMBER_1_FILL">
				<path class="st1" d="M325.2,240.2c0.8-2.1,1.4-4,1.8-5.7c0.5-3.2,0.9-5.8,1.2-8l9.3-70.6l-15.2,5.4l-3.1,37.1l-12.9-31.5
					l-14.7,5.2l24.2,49.2l-0.1,5.1c-0.2,3.3-0.9,5.8-2.2,7.4c-1.3,1.8-3.7,3.2-7,4.4l2,13.8c3.4-1.2,6.1-2.4,8.2-3.6
					c2.2-1.3,4-2.4,5.2-3.5C323.3,243.9,324.4,242.3,325.2,240.2z"/>
			</g>
		</g>
	</g>
	<g transform="matrix( 1, 0, 0, 1, 0,0) ">
		<g>
			<g id="Symbol_32_0_Layer1_1_MEMBER_1_MEMBER_2_FILL">
				<path class="st1" d="M359.9,162.4l12.2-4.3L382,226l14.4-5.1l-11.9-81.7l-41,14.5l11.9,81.8l14.4-5.1L359.9,162.4z"/>
			</g>
		</g>
	</g>
	<g transform="matrix( 1, 0, 0, 1, 0,0) ">
		<g>
			<g id="Symbol_32_0_Layer1_1_MEMBER_1_MEMBER_3_FILL">
				<path class="st1" d="M410.2,144.6l19.1-6.8l-2-13.8l-33.5,11.9l11.9,81.8l33.5-11.9l-2-13.8l-19.1,6.8l-3.1-20.5l16.4-5.8
					l-2-13.8l-16.5,5.8L410.2,144.6z"/>
			</g>
		</g>
	</g>
	<g transform="matrix( 1, 0, 0, 1, 0,0) ">
		<g>
			<g id="Symbol_32_0_Layer1_1_MEMBER_1_MEMBER_4_FILL">
				<path class="st1" d="M480.8,132.4c-0.5-3.1-1.3-6.2-2.4-9.4c-1.7-4.7-4.2-7.8-7.7-9.5c-3.9-1.9-9-1.8-15.2,0.4l-19.4,6.9
					l11.8,81.7l14.4-5.1l-4.4-29.6l7.1-2.6c6.8-2.4,11.5-6,14-10.8C481.6,149.8,482.2,142.4,480.8,132.4 M452.5,129.6l5-1.8
					c2.1-0.8,3.7-0.8,4.8-0.2c1.2,0.6,2.1,1.9,2.8,3.7c0.6,1.5,1,3.6,1.4,6.2c0.6,4.4,0.6,7.7,0,9.9c-0.7,2.2-2.4,3.8-5.1,4.8
					l-5.2,1.8L452.5,129.6z"/>
			</g>
		</g>
	</g>
</g>
</svg>
