<svg xmlns="http://www.w3.org/2000/svg" xmlns:xlink="http://www.w3.org/1999/xlink" viewBox="0 0 158.23 151.41"><defs><style>.cls-1{fill:#f9d021;}.cls-2{fill:#fff;}.cls-3{opacity:0.87;fill:url(#linear-gradient);}.cls-4{fill:url(#linear-gradient-2);}</style><linearGradient id="linear-gradient" x1="-59.34" y1="77.34" x2="147.59" y2="77.34" gradientUnits="userSpaceOnUse"><stop offset="0.12" stop-color="#ff0" stop-opacity="0"/><stop offset="0.22" stop-color="#ffff13" stop-opacity="0.08"/><stop offset="0.42" stop-color="#ffff43" stop-opacity="0.3"/><stop offset="0.71" stop-color="#ffff90" stop-opacity="0.64"/><stop offset="1" stop-color="#ffffe1"/></linearGradient><linearGradient id="linear-gradient-2" x1="-4420.91" y1="-4325.22" x2="-4399.28" y2="-4325.22" gradientTransform="translate(-4284.38 4473.35) rotate(90)" xlink:href="#linear-gradient"/></defs><title>goodStar</title><g id="Layer_2" data-name="Layer 2"><g id="_3_Finish_window" data-name="3_Finish_window"><path class="cls-1" d="M122.2,148.41a6.4,6.4,0,0,1-3-.75l-34.32-18a12.45,12.45,0,0,0-11.55,0L39,147.66a6.36,6.36,0,0,1-3,.75,6.53,6.53,0,0,1-4.93-2.33,6.23,6.23,0,0,1-1.38-5.18l6.55-38.22a12.39,12.39,0,0,0-3.57-11L4.94,64.64A6.41,6.41,0,0,1,8.5,53.71l38.37-5.58a12.4,12.4,0,0,0,9.34-6.79L73.37,6.57a6.41,6.41,0,0,1,11.49,0L102,41.34a12.4,12.4,0,0,0,9.34,6.79l38.38,5.58a6.41,6.41,0,0,1,3.55,10.93L125.52,91.7a12.42,12.42,0,0,0-3.57,11l6.56,38.22a6.3,6.3,0,0,1-1.38,5.18A6.55,6.55,0,0,1,122.2,148.41Z"/><path class="cls-2" d="M79.12,6a3.32,3.32,0,0,1,3,1.9L99.33,42.67a15.41,15.41,0,0,0,11.6,8.43l38.38,5.58A3.32,3.32,0,0,1,152.06,59a3.36,3.36,0,0,1-.86,3.5L123.43,89.55A15.41,15.41,0,0,0,119,103.19l6.55,38.22a3.31,3.31,0,0,1-.71,2.74,3.53,3.53,0,0,1-2.64,1.26,3.42,3.42,0,0,1-1.59-.41L86.29,127A15.41,15.41,0,0,0,72,127L37.63,145a3.45,3.45,0,0,1-1.59.41,3.51,3.51,0,0,1-2.64-1.26,3.27,3.27,0,0,1-.72-2.74l6.56-38.22a15.43,15.43,0,0,0-4.43-13.64L7,62.49a3.41,3.41,0,0,1,1.89-5.81L47.3,51.1a15.39,15.39,0,0,0,11.6-8.43L76.06,7.9A3.34,3.34,0,0,1,79.12,6m0-6a9.31,9.31,0,0,0-8.44,5.24L53.52,40a9.4,9.4,0,0,1-7.08,5.14L8.06,50.74a9.4,9.4,0,0,0-5.21,16L30.62,93.85a9.38,9.38,0,0,1,2.7,8.33l-6.55,38.21a9.38,9.38,0,0,0,13.65,9.92l34.32-18a9.4,9.4,0,0,1,8.75,0l34.33,18a9.32,9.32,0,0,0,4.38,1.1,9.43,9.43,0,0,0,9.27-11l-6.56-38.21a9.41,9.41,0,0,1,2.71-8.33l27.76-27.07a9.4,9.4,0,0,0-5.21-16L111.8,45.16A9.4,9.4,0,0,1,104.71,40L87.55,5.24A9.3,9.3,0,0,0,79.12,0Z"/><path class="cls-3" d="M87.18,31.64l9.37,19a9,9,0,0,0,6.76,4.92l21,3.05a9,9,0,0,1,5,15.33L114.09,88.69a9,9,0,0,0-2.59,8l3.58,20.86A9,9,0,0,1,102,127L83.3,117.14a9,9,0,0,0-8.37,0L56.2,127a9,9,0,0,1-13-9.48l3.57-20.86a9,9,0,0,0-2.58-8L29,73.92a9,9,0,0,1,5-15.33l21-3.05a9,9,0,0,0,6.77-4.92l9.37-19A9,9,0,0,1,87.18,31.64Z"/><ellipse class="cls-4" cx="40.84" cy="67.19" rx="7.43" ry="3.89" transform="translate(-36.61 53.63) rotate(-48.78)"/></g></g></svg>