
<svg xmlns="http://www.w3.org/2000/svg" version="1.1" xmlns:xlink="http://www.w3.org/1999/xlink" preserveAspectRatio="none" x="0px" y="0px" width="1636px" height="2160px" viewBox="0 0 1636 2160">
<defs>
<filter id="Filter_1" x="-20%" y="-20%" width="140%" height="140%" color-interpolation-filters="sRGB">
<feColorMatrix in="SourceGraphic" type="matrix" values="1 0 0 0 0 0 1 0 0 0 0 0 1 0 0 0 0 0 0.55 0" result="result1"/>
</filter>

<g id="Symbol_1_0_Layer0_0_FILL">
<path fill="#000000" stroke="none" d="
M 1636.4 2160
L 1636.4 0 0 0 0 2160 1636.4 2160
M 764.85 1079.95
Q 764.85 1057.85 780.4 1042.2 796.05 1026.6 818.2 1026.6 840.3 1026.6 855.95 1042.2 871.6 1057.85 871.6 1079.95 871.6 1102.1 855.95 1117.7 840.3 1133.35 818.2 1133.35 796.05 1133.35 780.4 1117.7 764.85 1102.1 764.85 1079.95 Z"/>
</g>
</defs>

<g transform="matrix( 1, 0, 0, 1, 0,0) ">
<g transform="matrix( 1, 0, 0, 1, 0,0) ">
<use filter="url(#Filter_1)" xlink:href="#Symbol_1_0_Layer0_0_FILL"/>
</g>
</g>
</svg>
