<svg xmlns="http://www.w3.org/2000/svg" xmlns:xlink="http://www.w3.org/1999/xlink" viewBox="0 0 1376.66 1376.66"><defs><style>.cls-1{opacity:0.52;fill:url(#radial-gradient);}.cls-2,.cls-3,.cls-4,.cls-5,.cls-6,.cls-7,.cls-8,.cls-9{opacity:0.7;}.cls-2{fill:url(#linear-gradient);}.cls-3{fill:url(#linear-gradient-2);}.cls-4{fill:url(#linear-gradient-3);}.cls-5{fill:url(#linear-gradient-4);}.cls-6{fill:url(#linear-gradient-5);}.cls-7{fill:url(#linear-gradient-6);}.cls-8{fill:url(#linear-gradient-7);}.cls-9{fill:url(#linear-gradient-8);}</style><radialGradient id="radial-gradient" cx="688.33" cy="688.33" r="351.17" gradientUnits="userSpaceOnUse"><stop offset="0.28" stop-color="#ffff91"/><stop offset="1" stop-opacity="0"/></radialGradient><linearGradient id="linear-gradient" x1="-655.08" y1="-2150.01" x2="-655.08" y2="-1464.81" gradientTransform="translate(734.98 2282.75) rotate(22.69)" gradientUnits="userSpaceOnUse"><stop offset="0.33" stop-color="#ffffac" stop-opacity="0"/><stop offset="0.4" stop-color="#ffffad" stop-opacity="0.02"/><stop offset="0.48" stop-color="#ffffb2" stop-opacity="0.07"/><stop offset="0.57" stop-color="#ffffb9" stop-opacity="0.16"/><stop offset="0.66" stop-color="#ffffc3" stop-opacity="0.28"/><stop offset="0.75" stop-color="#ffffd1" stop-opacity="0.44"/><stop offset="0.85" stop-color="#ffffe1" stop-opacity="0.63"/><stop offset="0.94" stop-color="#fffff3" stop-opacity="0.86"/><stop offset="0.99" stop-color="#fff"/></linearGradient><linearGradient id="linear-gradient-2" x1="-5352.2" y1="-4225" x2="-5352.2" y2="-3539.81" gradientTransform="matrix(0.38, 0.93, -0.93, 0.38, -542.3, 6981.97)" xlink:href="#linear-gradient"/><linearGradient id="linear-gradient-3" x1="-10140.81" y1="-2370.89" x2="-10140.81" y2="-1685.69" gradientTransform="translate(-4768.32 9401.64) rotate(112.69)" xlink:href="#linear-gradient"/><linearGradient id="linear-gradient-4" x1="-12215.81" y1="2326.23" x2="-12215.81" y2="3011.42" gradientTransform="translate(-9467.53 8124.37) rotate(157.69)" xlink:href="#linear-gradient"/><linearGradient id="linear-gradient-5" x1="-10361.69" y1="7114.84" x2="-10361.69" y2="7800.03" gradientTransform="translate(-11887.21 3898.35) rotate(-157.31)" xlink:href="#linear-gradient"/><linearGradient id="linear-gradient-6" x1="-5664.57" y1="9189.84" x2="-5664.57" y2="9875.03" gradientTransform="matrix(-0.38, -0.93, 0.93, -0.38, -10609.93, -800.87)" xlink:href="#linear-gradient"/><linearGradient id="linear-gradient-7" x1="-875.96" y1="7335.72" x2="-875.96" y2="8020.91" gradientTransform="translate(-6383.91 -3220.55) rotate(-67.31)" xlink:href="#linear-gradient"/><linearGradient id="linear-gradient-8" x1="1199.04" y1="2638.6" x2="1199.04" y2="3323.8" gradientTransform="translate(-1684.69 -1943.27) rotate(-22.31)" xlink:href="#linear-gradient"/></defs><title>Luchi</title><g id="Layer_2" data-name="Layer 2"><g id="_3_Finish_window" data-name="3_Finish_window"><circle class="cls-1" cx="688.33" cy="688.33" r="351.17"/><polygon class="cls-2" points="732.52 640.44 690.73 622.97 851.59 3.24 1066.54 93.09 732.52 640.44"/><polygon class="cls-3" points="753.44 685.72 736.24 643.81 1288.2 319.35 1376.66 534.87 753.44 685.72"/><polygon class="cls-4" points="736.22 732.52 753.69 690.73 1373.42 851.59 1283.57 1066.54 736.22 732.52"/><polygon class="cls-5" points="690.94 753.44 732.85 736.24 1057.31 1288.2 841.79 1376.66 690.94 753.44"/><polygon class="cls-6" points="644.13 736.22 685.93 753.69 525.06 1373.42 310.12 1283.57 644.13 736.22"/><polygon class="cls-7" points="623.22 690.94 640.42 732.85 88.45 1057.31 0 841.79 623.22 690.94"/><polygon class="cls-8" points="640.44 644.13 622.97 685.93 3.24 525.06 93.09 310.12 640.44 644.13"/><polygon class="cls-9" points="685.72 623.22 643.81 640.42 319.35 88.45 534.87 0 685.72 623.22"/></g></g></svg>