<?xml version="1.0" encoding="utf-8"?>
<!-- Generator: Adobe Illustrator 22.0.1, SVG Export Plug-In . SVG Version: 6.00 Build 0)  -->
<svg version="1.1" id="Layer_1" xmlns="http://www.w3.org/2000/svg" xmlns:xlink="http://www.w3.org/1999/xlink" x="0px" y="0px"
	 viewBox="0 0 431 389" style="enable-background:new 0 0 431 389;" xml:space="preserve">
<style type="text/css">
	.st0{fill:#F9D87D;}
	.st1{fill:#EBEFF2;}
</style>
<g transform="matrix( 0.999755859375, 0, 0, 0.999969482421875, 2,1.95) ">
	<g transform="matrix( 1, 0, 0, 1, 0,0.15) ">
		<g>
			<g id="Symbol_29_0_Layer0_0_MEMBER_0_MEMBER_0_FILL">
				<path class="st0" d="M40.6,123.5c1.1-2.1,1.3-4.2,0.6-6.4c-0.7-2.2-2-3.9-4-5s-4.2-1.3-6.4-0.7c-2.2,0.6-3.9,2-5.1,4
					c-6.7,12.4-12.1,25.3-16.3,38.8c-4.2,13.7-7,27.9-8.5,42.4c-1.4,14.5-1.3,28.9,0.1,43.3c1.5,14,4.3,27.7,8.5,41.1
					c0.4,1.4,1.1,2.6,2.1,3.6c1,1,2.2,1.6,3.5,2c1.6,0.5,3.2,0.5,4.8,0c2.2-0.7,3.9-2.1,4.9-4.2c1.1-2,1.3-4.2,0.6-6.4
					c-3.9-12.4-6.5-25-7.8-37.8c-1.4-13.3-1.4-26.6-0.1-39.9c1.3-13.3,3.9-26.3,7.8-39.1C29.4,146.8,34.4,134.9,40.6,123.5z"/>
			</g>
		</g>
	</g>
	<g transform="matrix( 1, 0, 0, 1, 0,0.15) ">
		<g>
			<g id="Symbol_29_0_Layer0_0_MEMBER_0_MEMBER_1_FILL">
				<path class="st1" d="M40.6,123.5c1.1-2.1,1.3-4.2,0.6-6.4c-0.7-2.2-2-3.9-4-5c-1.2-0.7-2.5-1-4-1c-1.5,0-2.9,0.4-4.2,1.1
					c-1.4,0.8-2.4,1.8-3.2,3.2c-6.7,12.4-12.1,25.3-16.3,38.8c-4.2,13.7-7,27.9-8.5,42.4c-1.4,14.5-1.3,28.9,0.1,43.3
					c1.5,14,4.3,27.7,8.5,41.1c0.4,1.4,1.1,2.6,2.1,3.6c1,1,2.2,1.6,3.5,2c0.8,0.2,1.6,0.3,2.3,0.3c0.9,0,1.8-0.1,2.5-0.3
					c2.2-0.7,3.9-2.1,4.9-4.2c1.1-2,1.3-4.2,0.6-6.4c-3.9-12.4-6.5-25-7.8-37.8c-1.4-13.3-1.4-26.6-0.1-39.9
					c1.3-13.3,3.9-26.3,7.8-39.1C29.4,146.8,34.4,134.9,40.6,123.5z"/>
			</g>
		</g>
	</g>
	<g transform="matrix( 1, 0, 0, 1, 0,0.15) ">
		<g>
			<g id="Symbol_29_0_Layer0_1_MEMBER_0_MEMBER_0_FILL">
				<path class="st0" d="M413.2,223.2c-2.3-0.2-4.3,0.5-6.1,2s-2.7,3.4-2.9,5.8c-1,12.8-3.3,25.5-6.8,38.1
					c-3.6,12.7-8.5,25.1-14.6,37.1c-6.1,11.8-13.4,22.9-21.8,33.4c-8.1,10-17.1,19.2-27.2,27.6c-1.8,1.5-2.8,3.4-3,5.7
					c-0.2,2.3,0.4,4.4,1.9,6.1c1.1,1.3,2.5,2.2,4.1,2.6c1.3,0.4,2.7,0.5,4,0.2c1.4-0.3,2.6-0.9,3.8-1.8C355.3,371,365.1,361,374,350
					c9-11.2,16.9-23.3,23.6-36.2c6.6-12.8,12-26.2,16-40.3c3.8-13.4,6.2-27.2,7.4-41.3c0.2-2.3-0.5-4.4-2-6.1
					C417.4,224.3,415.5,223.4,413.2,223.2z"/>
			</g>
		</g>
	</g>
	<g transform="matrix( 1, 0, 0, 1, 0,0.15) ">
		<g>
			<g id="Symbol_29_0_Layer0_1_MEMBER_0_MEMBER_1_FILL">
				<path class="st1" d="M413.2,223.2h-0.7c-2.2,0-4,0.8-5.6,2.2c-1.6,1.5-2.5,3.3-2.7,5.5c-1,12.8-3.3,25.5-6.8,38.1
					c-3.6,12.7-8.5,25.1-14.6,37.1c-6.1,11.8-13.4,22.9-21.8,33.4c-8.1,10-17.1,19.2-27.2,27.6c-1.8,1.5-2.8,3.4-3,5.7
					c-0.2,2.3,0.4,4.4,1.9,6.1c1.1,1.3,2.5,2.2,4.1,2.6c0.7,0.2,1.5,0.4,2.4,0.4c2.1,0,3.8-0.7,5.3-2C355.3,371,365.1,361,374,350
					c9-11.2,16.9-23.3,23.6-36.2c6.6-12.8,12-26.2,16-40.3c3.8-13.4,6.2-27.2,7.4-41.3c0.2-2.3-0.5-4.4-2-6.1
					C417.4,224.3,415.5,223.4,413.2,223.2z"/>
			</g>
		</g>
	</g>
</g>
</svg>
