
<svg xmlns="http://www.w3.org/2000/svg" version="1.1" xmlns:xlink="http://www.w3.org/1999/xlink" preserveAspectRatio="none" x="0px" y="0px" width="319px" height="372px" viewBox="0 0 319 372">
<defs>
<g id="Layer1_0_FILL">
<path fill="#FFFFFF" stroke="none" d="
M 213.3 73
Q 190.6 58.25 163.7 53.5 136.8 48.75 110.4 54.85 84.9 60.7 63.35 75.75 41.8 90.85 27.6 112.8 12.85 135.5 8.1 162.4 3.35 189.3 9.4 215.7 15.25 241.2 30.3 262.75 45.4 284.3 67.35 298.5 90.1 313.25 117 318 143.9 322.75 170.3 316.65 195.8 310.8 217.3 295.75 238.85 280.65 253.05 258.7 267.8 236 272.55 209.1 277.3 182.2 271.25 155.8 265.4 130.3 250.35 108.75 235.25 87.2 213.3 73 Z"/>
</g>

<path id="Layer1_0_1_STROKES" stroke="#DD54B2" stroke-width="8" stroke-linejoin="miter" stroke-linecap="butt" stroke-miterlimit="10" fill="none" d="
M 272.55 209.1
Q 267.8 236 253.05 258.7 238.85 280.65 217.3 295.75 195.8 310.8 170.3 316.65 143.9 322.75 117 318 90.1 313.25 67.35 298.5 45.4 284.3 30.3 262.75 15.25 241.2 9.4 215.7 3.35 189.3 8.1 162.4 12.85 135.5 27.6 112.8 41.8 90.85 63.35 75.75 84.9 60.7 110.4 54.85 136.8 48.75 163.7 53.5 190.6 58.25 213.3 73 235.25 87.2 250.35 108.75 265.4 130.3 271.25 155.8 277.3 182.2 272.55 209.1 Z"/>
</defs>

<g transform="matrix( 1, 0, 0, 1, 19.2,0.05) ">
<use xlink:href="#Layer1_0_FILL"/>

<use xlink:href="#Layer1_0_1_STROKES"/>
</g>
</svg>
