<?xml version="1.0" encoding="utf-8"?>
<!-- Generator: Adobe Illustrator 22.0.1, SVG Export Plug-In . SVG Version: 6.00 Build 0)  -->
<svg version="1.1" id="Layer_1" xmlns="http://www.w3.org/2000/svg" xmlns:xlink="http://www.w3.org/1999/xlink" x="0px" y="0px"
	 viewBox="0 0 678 396" style="enable-background:new 0 0 678 396;" xml:space="preserve">
<style type="text/css">
	.st0{fill:#FFFFFF;}
	.st1{fill:#D53A31;}
</style>
<g transform="matrix( 1, 0, 0, 1, 0,0) ">
	<g transform="matrix( 1, 0, 0, 1, 0,0) ">
		<g>
			<g id="Symbol_32_0_Layer2_0_FILL">
				<path class="st0" d="M648,273.6l27-75.9l-55.3-37.5L296.5,274.8L314.1,392L648,273.6z"/>
			</g>
		</g>
	</g>
	<g transform="matrix( 1, 0, 0, 1, 0,0) ">
		<g>
			<g id="Symbol_32_0_Layer2_1_MEMBER_0_MEMBER_0_FILL">
				<path class="st1" d="M357.9,271.8l-14.4,5.1l9.9,67.9l-10.3,3.7l-9.8-68l-14.4,5.1l11.8,81.8l63.7-22.6L382.5,263l-14.4,5.1
					L378,336l-10.3,3.7L357.9,271.8z"/>
			</g>
		</g>
	</g>
	<g transform="matrix( 1, 0, 0, 1, 0,0) ">
		<g>
			<g id="Symbol_32_0_Layer2_1_MEMBER_0_MEMBER_1_FILL">
				<path class="st0" d="M362,265l-24,8.5l9.8,68l-0.7,0.2l-9.9-68l-24,8.5l13.3,91.9l73.3-26l-13.3-91.8l-24,8.5l9.9,68l-0.7,0.2
					L362,265 M343.5,276.9l14.4-5.1l9.9,68L378,336l-9.9-67.9l14.4-5.1l11.9,81.7l-63.7,22.6l-11.8-81.8l14.4-5.1l9.8,68l10.3-3.7
					L343.5,276.9z"/>
			</g>
		</g>
	</g>
	<g transform="matrix( 1, 0, 0, 1, 0,0) ">
		<g>
			<g id="Symbol_32_0_Layer2_1_MEMBER_1_MEMBER_0_FILL">
				<path class="st1" d="M404.6,341.1L419,336l-11.9-81.7l-14.4,5.1L404.6,341.1 M421,249.4l-8,45.1l20.9,36.3l15.9-5.6l-21.9-36.2
					l9-45.1L421,249.4z"/>
			</g>
		</g>
	</g>
	<g transform="matrix( 1, 0, 0, 1, 0,0) ">
		<g>
			<g id="Symbol_32_0_Layer2_1_MEMBER_1_MEMBER_1_FILL">
				<path class="st0" d="M443.5,236.1l-27,9.5l-3,17.5l-2.2-15.6l-24,8.5l13.3,91.8l24-8.5l-2.9-19.9l10,17.4l25.6-9.1l-24.1-39.9
					L443.5,236.1 M413,294.5l8-45.1l15.9-5.6l-9,45.1l21.9,36.2l-15.9,5.6L413,294.5 M392.8,259.4l14.4-5.1L419,336l-14.4,5.1
					L392.8,259.4z"/>
			</g>
		</g>
	</g>
	<g transform="matrix( 1, 0, 0, 1, 0,0) ">
		<g>
			<g id="Symbol_32_0_Layer2_1_MEMBER_2_MEMBER_0_FILL">
				<path class="st1" d="M484,246.9c-1.6-4.5-3.8-7.9-6.4-10.2c-4.5-3.9-10.5-4.6-17.8-2c-6.6,2.3-11.3,6.2-13.9,11.7
					c-1.6,3.4-2.4,7.5-2.4,12.4c0,4.5,0.8,12.8,2.4,24.8c1.3,9.8,2.8,17,4.4,21.6c1.5,4.4,3.6,7.8,6.4,10.1c4.5,3.9,10.5,4.6,17.9,2
					c6.6-2.3,11.2-6.2,13.9-11.6c1.6-3.4,2.4-7.5,2.4-12.4c0-4.6-0.8-12.9-2.4-24.8C487,258.8,485.6,251.6,484,246.9 M460.2,278.5
					c-1.2-8.6-1.9-14.8-2.1-18.7c-0.2-3.7,0.1-6.4,0.9-8c0.9-1.9,2.1-3.1,3.9-3.7c3.1-1.1,5.4,0.3,6.8,4.1
					c1.3,3.7,2.8,10.9,4.3,21.4c1.3,9,2,15.2,2.1,18.6c0.2,3.7-0.1,6.4-0.9,8c-0.8,1.8-2.1,3.1-3.9,3.7c-3.1,1.1-5.4-0.3-6.8-4.1
					C463.2,296.1,461.8,289,460.2,278.5z"/>
			</g>
		</g>
	</g>
	<g transform="matrix( 1, 0, 0, 1, 0,0) ">
		<g>
			<g id="Symbol_32_0_Layer2_1_MEMBER_2_MEMBER_1_FILL">
				<path class="st0" d="M480.9,232.9c-3.6-3.2-8-4.8-13-4.8c-3.1,0-6.4,0.6-9.8,1.9c-8,2.8-13.5,7.5-16.7,14.2
					c-1.9,4-2.9,8.9-2.9,14.6c0,4.8,0.8,13.3,2.4,25.5c1.4,10.1,2.9,17.6,4.6,22.5c1.8,5.2,4.4,9.3,7.8,12.3c3.7,3.2,8.1,4.8,13,4.8
					c3.1,0,6.3-0.6,9.8-1.8c8-2.9,13.6-7.6,16.7-14.2c1.9-4,2.9-8.8,2.9-14.5c0-4.9-0.8-13.4-2.5-25.5c-1.4-10.1-2.9-17.6-4.6-22.6
					C486.8,240,484.2,235.9,480.9,232.9 M459.7,234.7c2.9-1,5.6-1.6,8.1-1.6c3.7,0,6.9,1.2,9.7,3.6c2.6,2.3,4.8,5.7,6.4,10.2
					c1.6,4.7,3.1,12,4.4,21.6c1.6,11.9,2.4,20.1,2.4,24.8c0,4.9-0.9,9-2.4,12.4c-2.6,5.4-7.2,9.3-13.9,11.6c-2.9,1-5.6,1.6-8.1,1.6
					c-3.8,0-7-1.2-9.8-3.6c-2.7-2.3-4.8-5.7-6.4-10.1c-1.6-4.6-3.1-11.8-4.4-21.6c-1.6-12-2.4-20.3-2.4-24.8c0-4.9,0.8-9,2.4-12.4
					C448.4,240.9,453.1,237,459.7,234.7 M459,251.8c-0.8,1.6-1.1,4.3-0.9,8c0.2,3.9,0.9,10.1,2.1,18.7c1.5,10.5,3,17.6,4.3,21.4
					c1.1,3,2.7,4.5,4.8,4.5c0.6,0,1.3-0.1,2-0.4c1.7-0.6,3-1.8,3.9-3.7c0.8-1.7,1.1-4.4,0.9-8c-0.1-3.4-0.9-9.6-2.1-18.6
					c-1.5-10.5-3-17.7-4.3-21.4c-1-3-2.6-4.5-4.8-4.5c-0.7,0-1.3,0.1-2,0.4C461.1,248.7,459.9,249.9,459,251.8 M463.1,259.5
					c-0.1-1.7-0.1-3.2,0.1-4.3c0.1-0.6,0.2-1.1,0.3-1.3c0.2-0.5,0.6-0.9,1-1.1c0.1,0.2,0.3,0.5,0.5,1.1c1.3,3.8,2.6,10.6,4,20.4
					c1.2,8.5,1.9,14.6,2.1,18.2c0.2,2.8,0,4.7-0.4,5.6c-0.3,0.6-0.6,1-1,1.1c-0.1-0.2-0.3-0.6-0.5-1.1c-1.3-3.7-2.7-10.5-4.1-20.4
					C464,269.2,463.3,263.1,463.1,259.5z"/>
			</g>
		</g>
	</g>
	<g transform="matrix( 1, 0, 0, 1, 0,0) ">
		<g>
			<g id="Symbol_32_0_Layer2_1_MEMBER_3_MEMBER_0_FILL">
				<path class="st1" d="M512.1,231.6l10.3-3.7l9.8,67.9l14.5-5.1l-11.9-81.7l-38.7,13.7l6.8,47.5c1.1,7.9,1.2,13.5,0.2,17
					c-1,3.4-3.1,5.6-6.3,6.8l-1.3,0.4l2,13.8l4.4-1.5c3.9-1.4,7.1-2.9,9.4-4.6c2.2-1.6,4-3.9,5.3-7.1c1.3-3.1,1.9-7,1.9-11.6
					c-0.1-4.8-0.6-10.8-1.7-18L512.1,231.6z"/>
			</g>
		</g>
	</g>
	<g transform="matrix( 1, 0, 0, 1, 0,0) ">
		<g>
			<g id="Symbol_32_0_Layer2_1_MEMBER_3_MEMBER_1_FILL">
				<path class="st0" d="M517.6,234.9l0.7-0.2l9.9,67.9l24.1-8.5L539,202.3l-48.3,17.1l7.4,51.5c1,7.1,1.2,12.1,0.4,14.9
					c-0.5,1.7-1.6,2.8-3.2,3.4L490,291l3.5,23.9l10.1-3.6c4.5-1.6,8.1-3.4,10.6-5.2c3-2.2,5.3-5.2,7-9.2c1.6-3.7,2.3-8.2,2.3-13.6
					c0-4.8-0.6-11-1.8-18.8L517.6,234.9 M522.4,227.9l-10.3,3.7l4.8,33.6c1.1,7.3,1.6,13.3,1.7,18c0,4.6-0.6,8.5-1.9,11.6
					c-1.3,3.2-3.1,5.5-5.3,7.1c-2.3,1.7-5.4,3.2-9.4,4.6l-4.4,1.5l-2-13.8l1.3-0.4c3.2-1.1,5.3-3.4,6.3-6.8c1-3.5,0.9-9.1-0.2-17
					l-6.8-47.5l38.7-13.7l11.9,81.7l-14.5,5.1L522.4,227.9z"/>
			</g>
		</g>
	</g>
	<g transform="matrix( 1, 0, 0, 1, 0,0) ">
		<g>
			<g id="Symbol_32_0_Layer2_1_MEMBER_4_MEMBER_0_FILL">
				<path class="st1" d="M587.1,190.5l-15.2,5.4l-3.1,37.2l-12.8-31.6l-14.7,5.2l24.2,49.2l-0.1,5.1c-0.1,3.3-0.9,5.8-2.2,7.5
					c-1.3,1.7-3.6,3.1-7,4.4l2,13.8c3.4-1.2,6.1-2.4,8.2-3.6c2.1-1.2,3.8-2.3,5.2-3.5c1.3-1.1,2.4-2.6,3.2-4.8
					c0.8-2.2,1.4-4.1,1.8-5.8c0.5-2.8,0.9-5.5,1.2-8L587.1,190.5z"/>
			</g>
		</g>
	</g>
	<g transform="matrix( 1, 0, 0, 1, 0,0) ">
		<g>
			<g id="Symbol_32_0_Layer2_1_MEMBER_4_MEMBER_1_FILL">
				<path class="st0" d="M593.2,183.1l-26,9.2l-1.7,19.6l-6.8-16.6l-24.5,8.7l26.2,53.2l-0.1,3.9c-0.1,2.2-0.4,3.7-1.1,4.6
					c-0.7,0.9-2.2,1.8-4.7,2.7l-3.9,1.4l3.5,23.9l5.8-2c3.8-1.4,6.8-2.7,9-4c2.4-1.3,4.4-2.7,6-4c2-1.6,3.5-3.9,4.7-6.8
					c0.9-2.2,1.5-4.4,2-6.6c0.2-1.2,0.7-3.9,1.3-8.2v0L593.2,183.1 M571.8,195.9l15.2-5.4l-9.3,70.6c-0.3,2.5-0.8,5.2-1.2,8
					c-0.3,1.7-0.9,3.6-1.8,5.8c-0.8,2.1-1.9,3.7-3.2,4.8c-1.4,1.2-3.1,2.3-5.2,3.5c-2.1,1.2-4.9,2.4-8.2,3.6l-2-13.8
					c3.4-1.2,5.7-2.6,7-4.4c1.3-1.7,2.1-4.2,2.2-7.5l0.1-5.1l-24.2-49.2l14.7-5.2l12.8,31.6L571.8,195.9z"/>
			</g>
		</g>
	</g>
	<g transform="matrix( 1, 0, 0, 1, 0,0) ">
		<g>
			<g id="Symbol_32_0_Layer2_1_MEMBER_5_MEMBER_0_FILL">
				<path class="st1" d="M604.2,252.2l2.5,17.2l15.2-5.4l-2.5-17.2L604.2,252.2 M610.5,182.2l-15.9,5.6l10,57.4l13.8-4.9
					L610.5,182.2z"/>
			</g>
		</g>
	</g>
	<g transform="matrix( 1, 0, 0, 1, 0,0) ">
		<g>
			<g id="Symbol_32_0_Layer2_1_MEMBER_5_MEMBER_1_FILL">
				<path class="st0" d="M614.6,175.4l-25.6,9.1l11.1,63.9l-1.3,0.4l4,27.3l24.8-8.8l-4-27.3l-0.2,0.1L614.6,175.4 M594.6,187.9
					l15.9-5.6l7.8,58.1l-13.8,4.9L594.6,187.9 M606.8,269.5l-2.5-17.2l15.2-5.4l2.5,17.2L606.8,269.5z"/>
			</g>
		</g>
	</g>
</g>
</svg>
